<mxfile host="Electron" modified="2023-05-19T18:47:21.430Z" agent="Mozilla/5.0 (Windows NT 10.0; Win64; x64) AppleWebKit/537.36 (KHTML, like Gecko) draw.io/21.2.8 Chrome/112.0.5615.165 Electron/24.2.0 Safari/537.36" etag="MXtAyvlMDHCN9xTnHj6f" version="21.2.8" type="device">
  <diagram name="Page-1" id="fy0yMFs-l6_ihyOrWVbL">
    <mxGraphModel dx="1058" dy="1289" grid="1" gridSize="6" guides="1" tooltips="1" connect="1" arrows="1" fold="1" page="1" pageScale="1" pageWidth="909" pageHeight="773" math="0" shadow="0">
      <root>
        <mxCell id="0" />
        <mxCell id="1" parent="0" />
        <mxCell id="6_qLu9a7I7S-zpsQssob-3" value="Actor" style="shape=umlActor;verticalLabelPosition=bottom;verticalAlign=top;html=1;outlineConnect=0;" parent="1" vertex="1">
          <mxGeometry x="30" y="160" width="30" height="60" as="geometry" />
        </mxCell>
        <mxCell id="6_qLu9a7I7S-zpsQssob-4" value="home" style="ellipse;whiteSpace=wrap;html=1;" parent="1" vertex="1">
          <mxGeometry x="110" y="165" width="70" height="50" as="geometry" />
        </mxCell>
        <mxCell id="6_qLu9a7I7S-zpsQssob-5" value="" style="endArrow=none;html=1;rounded=0;" parent="1" edge="1">
          <mxGeometry width="50" height="50" relative="1" as="geometry">
            <mxPoint x="48" y="189" as="sourcePoint" />
            <mxPoint x="110" y="189.32999999999998" as="targetPoint" />
          </mxGeometry>
        </mxCell>
        <mxCell id="6_qLu9a7I7S-zpsQssob-9" value="sign up" style="ellipse;whiteSpace=wrap;html=1;" parent="1" vertex="1">
          <mxGeometry x="318" y="492" width="70" height="50" as="geometry" />
        </mxCell>
        <mxCell id="6_qLu9a7I7S-zpsQssob-10" value="login" style="ellipse;whiteSpace=wrap;html=1;" parent="1" vertex="1">
          <mxGeometry x="282" y="165" width="70" height="50" as="geometry" />
        </mxCell>
        <mxCell id="6_qLu9a7I7S-zpsQssob-11" value="view google map" style="ellipse;whiteSpace=wrap;html=1;" parent="1" vertex="1">
          <mxGeometry x="282" y="-96" width="70" height="50" as="geometry" />
        </mxCell>
        <mxCell id="6_qLu9a7I7S-zpsQssob-12" value="feedback" style="ellipse;whiteSpace=wrap;html=1;" parent="1" vertex="1">
          <mxGeometry x="264" y="546" width="70" height="50" as="geometry" />
        </mxCell>
        <mxCell id="6_qLu9a7I7S-zpsQssob-13" value="find restaurant" style="ellipse;whiteSpace=wrap;html=1;" parent="1" vertex="1">
          <mxGeometry x="408" y="84" width="70" height="50" as="geometry" />
        </mxCell>
        <mxCell id="6_qLu9a7I7S-zpsQssob-14" value="find target location" style="ellipse;whiteSpace=wrap;html=1;" parent="1" vertex="1">
          <mxGeometry x="462" y="306" width="70" height="50" as="geometry" />
        </mxCell>
        <mxCell id="6_qLu9a7I7S-zpsQssob-16" value="view map" style="ellipse;whiteSpace=wrap;html=1;" parent="1" vertex="1">
          <mxGeometry x="540" y="144" width="132" height="50" as="geometry" />
        </mxCell>
        <mxCell id="6_qLu9a7I7S-zpsQssob-17" value="view longetitude and latitude" style="ellipse;whiteSpace=wrap;html=1;" parent="1" vertex="1">
          <mxGeometry x="540" y="18" width="108" height="50" as="geometry" />
        </mxCell>
        <mxCell id="6_qLu9a7I7S-zpsQssob-18" value="google database" style="image;aspect=fixed;perimeter=ellipsePerimeter;html=1;align=center;shadow=0;dashed=0;spacingTop=3;image=img/lib/active_directory/databases.svg;" parent="1" vertex="1">
          <mxGeometry x="738" y="-108" width="50" height="49" as="geometry" />
        </mxCell>
        <mxCell id="6_qLu9a7I7S-zpsQssob-19" value="database" style="image;aspect=fixed;perimeter=ellipsePerimeter;html=1;align=center;shadow=0;dashed=0;spacingTop=3;image=img/lib/active_directory/databases.svg;" parent="1" vertex="1">
          <mxGeometry x="744" y="78" width="50" height="49" as="geometry" />
        </mxCell>
        <mxCell id="6_qLu9a7I7S-zpsQssob-21" value="" style="endArrow=none;html=1;rounded=0;entryX=0;entryY=0.5;entryDx=0;entryDy=0;" parent="1" target="6_qLu9a7I7S-zpsQssob-10" edge="1">
          <mxGeometry width="50" height="50" relative="1" as="geometry">
            <mxPoint x="186" y="192" as="sourcePoint" />
            <mxPoint x="246" y="192" as="targetPoint" />
          </mxGeometry>
        </mxCell>
        <mxCell id="6_qLu9a7I7S-zpsQssob-23" value="" style="endArrow=none;html=1;rounded=0;entryX=0;entryY=0;entryDx=0;entryDy=0;exitX=0.729;exitY=0.94;exitDx=0;exitDy=0;exitPerimeter=0;" parent="1" source="6_qLu9a7I7S-zpsQssob-4" target="6_qLu9a7I7S-zpsQssob-9" edge="1">
          <mxGeometry width="50" height="50" relative="1" as="geometry">
            <mxPoint x="168" y="278" as="sourcePoint" />
            <mxPoint x="218" y="228" as="targetPoint" />
          </mxGeometry>
        </mxCell>
        <mxCell id="6_qLu9a7I7S-zpsQssob-24" value="" style="endArrow=none;html=1;rounded=0;" parent="1" edge="1">
          <mxGeometry width="50" height="50" relative="1" as="geometry">
            <mxPoint x="156" y="162" as="sourcePoint" />
            <mxPoint x="288" y="-36" as="targetPoint" />
          </mxGeometry>
        </mxCell>
        <mxCell id="6_qLu9a7I7S-zpsQssob-25" value="" style="endArrow=none;html=1;rounded=0;exitX=0;exitY=0;exitDx=0;exitDy=0;" parent="1" source="6_qLu9a7I7S-zpsQssob-12" edge="1">
          <mxGeometry width="50" height="50" relative="1" as="geometry">
            <mxPoint x="270" y="444" as="sourcePoint" />
            <mxPoint x="138" y="216" as="targetPoint" />
          </mxGeometry>
        </mxCell>
        <mxCell id="6_qLu9a7I7S-zpsQssob-26" value="" style="endArrow=none;html=1;rounded=0;entryX=0.5;entryY=1;entryDx=0;entryDy=0;" parent="1" target="6_qLu9a7I7S-zpsQssob-11" edge="1">
          <mxGeometry width="50" height="50" relative="1" as="geometry">
            <mxPoint x="317" y="162" as="sourcePoint" />
            <mxPoint x="464" y="24" as="targetPoint" />
          </mxGeometry>
        </mxCell>
        <mxCell id="6_qLu9a7I7S-zpsQssob-27" value="" style="endArrow=none;html=1;rounded=0;exitX=1;exitY=0;exitDx=0;exitDy=0;entryX=0;entryY=1;entryDx=0;entryDy=0;" parent="1" source="6_qLu9a7I7S-zpsQssob-10" target="6_qLu9a7I7S-zpsQssob-13" edge="1">
          <mxGeometry width="50" height="50" relative="1" as="geometry">
            <mxPoint x="414" y="302" as="sourcePoint" />
            <mxPoint x="464" y="252" as="targetPoint" />
          </mxGeometry>
        </mxCell>
        <mxCell id="6_qLu9a7I7S-zpsQssob-28" value="" style="endArrow=none;html=1;rounded=0;exitX=1;exitY=1;exitDx=0;exitDy=0;entryX=0;entryY=0.207;entryDx=0;entryDy=0;entryPerimeter=0;" parent="1" source="6_qLu9a7I7S-zpsQssob-10" target="6_qLu9a7I7S-zpsQssob-14" edge="1">
          <mxGeometry width="50" height="50" relative="1" as="geometry">
            <mxPoint x="414" y="302" as="sourcePoint" />
            <mxPoint x="464" y="252" as="targetPoint" />
          </mxGeometry>
        </mxCell>
        <mxCell id="6_qLu9a7I7S-zpsQssob-30" value="&amp;nbsp;google map" style="ellipse;whiteSpace=wrap;html=1;" parent="1" vertex="1">
          <mxGeometry x="498" y="-102" width="70" height="50" as="geometry" />
        </mxCell>
        <mxCell id="6_qLu9a7I7S-zpsQssob-31" value="Extends" style="endArrow=block;endSize=16;endFill=0;html=1;rounded=0;" parent="1" edge="1">
          <mxGeometry width="160" relative="1" as="geometry">
            <mxPoint x="354" y="-72" as="sourcePoint" />
            <mxPoint x="494" y="-71.66999999999999" as="targetPoint" />
          </mxGeometry>
        </mxCell>
        <mxCell id="6_qLu9a7I7S-zpsQssob-32" value="Use" style="endArrow=open;endSize=12;dashed=1;html=1;rounded=0;" parent="1" edge="1">
          <mxGeometry width="160" relative="1" as="geometry">
            <mxPoint x="570" y="-78" as="sourcePoint" />
            <mxPoint x="732" y="-78" as="targetPoint" />
          </mxGeometry>
        </mxCell>
        <mxCell id="6_qLu9a7I7S-zpsQssob-33" value="Use" style="endArrow=open;endSize=12;dashed=1;html=1;rounded=0;exitX=1;exitY=1;exitDx=0;exitDy=0;" parent="1" source="6_qLu9a7I7S-zpsQssob-13" target="6_qLu9a7I7S-zpsQssob-16" edge="1">
          <mxGeometry width="160" relative="1" as="geometry">
            <mxPoint x="360" y="138" as="sourcePoint" />
            <mxPoint x="520" y="138" as="targetPoint" />
          </mxGeometry>
        </mxCell>
        <mxCell id="6_qLu9a7I7S-zpsQssob-34" value="Use" style="endArrow=open;endSize=12;dashed=1;html=1;rounded=0;entryX=0.025;entryY=0.793;entryDx=0;entryDy=0;entryPerimeter=0;" parent="1" target="6_qLu9a7I7S-zpsQssob-17" edge="1">
          <mxGeometry width="160" relative="1" as="geometry">
            <mxPoint x="480" y="102" as="sourcePoint" />
            <mxPoint x="520" y="138" as="targetPoint" />
          </mxGeometry>
        </mxCell>
        <mxCell id="6_qLu9a7I7S-zpsQssob-35" value="view longetitude and latitude" style="ellipse;whiteSpace=wrap;html=1;" parent="1" vertex="1">
          <mxGeometry x="576" y="234" width="108" height="50" as="geometry" />
        </mxCell>
        <mxCell id="6_qLu9a7I7S-zpsQssob-36" value="view longetitude and latitude" style="ellipse;whiteSpace=wrap;html=1;" parent="1" vertex="1">
          <mxGeometry x="576" y="420" width="108" height="50" as="geometry" />
        </mxCell>
        <mxCell id="6_qLu9a7I7S-zpsQssob-37" value="Use" style="endArrow=open;endSize=12;dashed=1;html=1;rounded=0;entryX=0.062;entryY=0.113;entryDx=0;entryDy=0;entryPerimeter=0;" parent="1" target="6_qLu9a7I7S-zpsQssob-36" edge="1">
          <mxGeometry width="160" relative="1" as="geometry">
            <mxPoint x="510" y="360" as="sourcePoint" />
            <mxPoint x="520" y="138" as="targetPoint" />
          </mxGeometry>
        </mxCell>
        <mxCell id="6_qLu9a7I7S-zpsQssob-38" value="Use" style="endArrow=open;endSize=12;dashed=1;html=1;rounded=0;exitX=0.638;exitY=-0.007;exitDx=0;exitDy=0;exitPerimeter=0;" parent="1" source="6_qLu9a7I7S-zpsQssob-14" target="6_qLu9a7I7S-zpsQssob-35" edge="1">
          <mxGeometry width="160" relative="1" as="geometry">
            <mxPoint x="360" y="138" as="sourcePoint" />
            <mxPoint x="520" y="138" as="targetPoint" />
          </mxGeometry>
        </mxCell>
        <mxCell id="6_qLu9a7I7S-zpsQssob-39" value="Extends" style="endArrow=block;endSize=16;endFill=0;html=1;rounded=0;entryX=0;entryY=0.75;entryDx=0;entryDy=0;" parent="1" target="6_qLu9a7I7S-zpsQssob-19" edge="1">
          <mxGeometry width="160" relative="1" as="geometry">
            <mxPoint x="480" y="109" as="sourcePoint" />
            <mxPoint x="520" y="138" as="targetPoint" />
          </mxGeometry>
        </mxCell>
        <mxCell id="6_qLu9a7I7S-zpsQssob-41" value="Use" style="endArrow=open;endSize=12;dashed=1;html=1;rounded=0;" parent="1" edge="1">
          <mxGeometry width="160" relative="1" as="geometry">
            <mxPoint x="336" y="570" as="sourcePoint" />
            <mxPoint x="768" y="156" as="targetPoint" />
            <Array as="points">
              <mxPoint x="768" y="570" />
            </Array>
          </mxGeometry>
        </mxCell>
        <mxCell id="6_qLu9a7I7S-zpsQssob-44" value="Use" style="endArrow=open;endSize=12;dashed=1;html=1;rounded=0;exitX=1;exitY=0.5;exitDx=0;exitDy=0;" parent="1" source="6_qLu9a7I7S-zpsQssob-9" edge="1">
          <mxGeometry width="160" relative="1" as="geometry">
            <mxPoint x="360" y="624" as="sourcePoint" />
            <mxPoint x="756" y="162" as="targetPoint" />
            <Array as="points">
              <mxPoint x="750" y="510" />
            </Array>
          </mxGeometry>
        </mxCell>
        <mxCell id="6_qLu9a7I7S-zpsQssob-46" value="" style="swimlane;startSize=0;" parent="1" vertex="1">
          <mxGeometry x="96" y="-192" width="786" height="914" as="geometry" />
        </mxCell>
        <mxCell id="6_qLu9a7I7S-zpsQssob-48" value="&lt;font style=&quot;&quot;&gt;&lt;span style=&quot;font-size: 36px;&quot;&gt;USE CASE&lt;/span&gt;&lt;br&gt;&lt;font style=&quot;font-size: 18px;&quot;&gt;(ahmet sagdasli)&lt;/font&gt;&lt;br&gt;&lt;/font&gt;" style="rounded=0;whiteSpace=wrap;html=1;" parent="1" vertex="1">
          <mxGeometry x="312" y="-264" width="414" height="60" as="geometry" />
        </mxCell>
      </root>
    </mxGraphModel>
  </diagram>
</mxfile>
